<svg xmlns="http://www.w3.org/2000/svg" viewBox="0 0 32 32">
  <rect width="32" height="32" rx="8" fill="#4355b9"/>
  <!-- Torch handle -->
  <rect x="14.5" y="20" width="3" height="9" rx="1.5" fill="#c7d0ff"/>
  <!-- Torch cup -->
  <path d="M12 18 L14.5 20 L17.5 20 L20 18 Z" fill="#a0aae8"/>
  <!-- Flame outer -->
  <path d="M16 4 C14 7 11 10 11 13.5 C11 16.5 13.2 19 16 19 C18.8 19 21 16.5 21 13.5 C21 10 18 7 16 4 Z" fill="#fbbf24"/>
  <!-- Flame inner -->
  <path d="M16 8 C15 10 13.5 11.5 13.5 13.5 C13.5 15.2 14.6 16.5 16 16.5 C17.4 16.5 18.5 15.2 18.5 13.5 C18.5 11.5 17 10 16 8 Z" fill="#ffffff" opacity="0.55"/>
</svg>
